<svg version="1" xmlns="http://www.w3.org/2000/svg" width="364" height="364" viewBox="0 0 273.000000 273.000000"><path d="M31.5 86.8c-10.9 1.1-20 6.3-23.7 13.6-1.1 2.2-2 4.2-1.9 4.3 0 .2.1.4 0 .5-.8 2.7-1 8.2-1 28.3-.1 26 .1 31.5 1 33 .3.5.7 1.9.8 2.9.9 5.3 9.2 12.4 17.4 14.7 6.4 1.8 49.1 2.2 51.5.5 1.5-1.1 1.7-2.9 1.7-12 0-6.9-.4-11.1-1.2-11.9-.8-.8-6.4-1.2-17.9-1.3-16.6-.1-21-.8-21.3-3.7-.1-.7-.2-9.7-.3-20l-.2-18.9 2.4-1.9C41 113.2 43 113 58 113c14.1 0 17-.3 18.1-1.6 1.7-2.1 1.7-22 0-23.7-.9-.9-7-1.2-21.4-1.2-11.1 0-21.5.1-23.2.3zM114.7 86.6c-.1.1-1.8.4-3.7.7-10.3 1.5-16.9 6.8-19.8 15.7-.6 2-.7 27.9 0 30.8 1.2 5.8 9.4 12.2 17.3 13.7 4.4.8 8.6 1.5 12 1.9 14 1.8 14.3 1.9 14.9 5.3.9 4.6-.1 4.8-21.8 4.9-14 0-20.9.4-21.9 1.2-1.9 1.7-2 21.8-.1 23.7 1.9 1.9 54.2 1.4 59.4-.5 8-2.9 14.2-9.7 15.7-17 1-4.7.6-24.5-.6-28.5-2-7.2-7.3-11.4-16.7-13.6-4.9-1.1-7.1-1.4-15.4-2.4-8.5-1-10.5-1.6-11.6-3.1-1.3-1.6-.8-5 .8-6 .5-.3 9-.6 18.9-.7 13.8 0 18.2-.3 19.1-1.4 1.5-1.8 1.6-21.1.1-23.2-1-1.4-4.2-1.6-23.7-1.7-12.5 0-22.7.1-22.9.2zM184.8 86.7c-.9.3-2 1.3-2.4 2.5-1 3.3-1 13.8.1 13.8.7 0 .7.3 0 .8-1.2.8-1.4 8.2-.2 8.2.5 0 .5.5.1 1.2-1 1.5-1.1 13.8-.2 13.8.4 0 .5.6.3 1.2-1.2 3.4-1.3 6.8-.2 6.8.8 0 .8.3.2.8-1.2.8-1.4 8.2-.2 8.2.5 0 .5.5.1 1.2-1 1.5-1.1 13.8-.2 13.8.4 0 .3 1.1-.2 2.4-.5 1.5-.5 2.7.3 3.5.6.6.7 1.1.2 1.1-.8 0-1.1 14.6-.4 15.7.1.2.2.7.3 1.2.3 2.2 2.5 2.6 14.4 2.7 11.7.2 16.3-.5 16.1-2.4-.1-.4-.1-.9.1-1.2.1-.3.2-7.5.3-16l.2-15.5 11.3-.2 11.2-.2.1 2.4c.1 1.4.2 3.1.3 3.7.1.7-.1 2.5-.5 4-.4 1.4-.5 2.9-.1 3.2.3.4.6 5.1.6 10.6.1 7.3.5 10.3 1.4 10.9.8.4 7.3.8 14.5.7 12.2-.1 13.2-.2 14.2-2.2 1.6-3.1 1.3-94-.3-95.6-1.3-1.3-24.2-2-27.7-.8-1.5.6-2 1.7-2.2 4.9-.1 2.4-.4 4.8-.7 5.6-.2.7-.2 1.6.2 1.9.9 1 .8 16.7-.2 17.3-.4.3-.3.8.2 1.2.7.4.7 1.2.2 2-.6 1.1-3.5 1.4-11.7 1.5h-10.8l-.1-15c-.2-15.5-.7-19.3-2.7-19.5-3.5-.4-24.5-.5-25.9-.2z"/></svg>